<?xml version="1.0" encoding="UTF-8"?>
<svg version="1.1" xmlns="http://www.w3.org/2000/svg" width="1024" height="1024">
<path d="M0 0 C2.71673721 0.49713661 5.43804795 0.96336721 8.15997314 1.43121338 C14.18811247 2.4736717 20.20320392 3.58995185 26.22070312 4.69189453 C29.2115938 5.23832551 32.20339563 5.77953326 35.1953125 6.3203125 C36.10677032 6.48902863 37.01822815 6.65774475 37.95730591 6.83157349 C42.01542189 7.56358346 45.85580781 8.23053074 50 8 C50 8.66 50 9.32 50 10 C50.65588104 10.03543411 51.31176208 10.07086823 51.98751831 10.1073761 C61.51164199 10.75118445 70.76142049 12.43696407 80.1328125 14.16796875 C81.89499515 14.48899462 83.65727571 14.80948341 85.41964722 15.12947083 C90.05328719 15.97212851 94.68568483 16.82142353 99.31781006 17.67236328 C103.90914988 18.51490254 108.50144602 19.35218765 113.09375 20.18945312 C114.44273188 20.43545856 114.44273188 20.43545856 115.81896591 20.68643379 C118.52773122 21.18037143 121.23652103 21.67417461 123.9453125 22.16796875 C124.83339851 22.32991604 125.72148453 22.49186333 126.63648224 22.65871811 C132.75724695 23.77472754 138.87837159 24.88873763 145 26 C146.27033333 26.23061504 146.27033333 26.23061504 147.56632996 26.46588898 C152.42131957 27.34632879 157.27723008 28.22137515 162.1345787 29.08870888 C163.60582985 29.35202026 165.07681816 29.61680505 166.54751968 29.88316917 C168.55811579 30.24697376 170.56980579 30.6047173 172.58154297 30.9621582 C173.70688446 31.16380081 174.83222595 31.36544342 175.9916687 31.57319641 C178.71919562 31.9601612 181.25372159 32.01247535 184 32 C185.63232828 32.46298813 187.26371713 32.93008921 188.88595581 33.42727661 C193.45946028 34.66630132 198.17627936 35.29420243 202.84765625 36.05859375 C205.16737221 36.44824335 207.48703202 36.83822744 209.80664062 37.22851562 C213.44214837 37.83578635 217.07808692 38.44006396 220.71508789 39.03833008 C224.23992882 39.61989193 227.76259318 40.21341219 231.28515625 40.80859375 C232.36966568 40.9836998 233.45417511 41.15880585 234.57154846 41.33921814 C241.04385148 42.44230282 246.56660189 43.43141311 251.25 48.375 C255.15475729 54.23213594 255.28815613 59.09313786 255.26069641 65.95092773 C255.26452196 66.96127107 255.26834751 67.9716144 255.27228898 69.0125742 C255.28261895 72.40296676 255.2786266 75.79318996 255.2746582 79.18359375 C255.27900507 81.61328285 255.28418813 84.04297057 255.29014587 86.47265625 C255.30216542 92.39396351 255.30468519 98.31522871 255.30234561 104.23654354 C255.30056054 109.05842713 255.30231619 113.880297 255.30657005 118.70217896 C255.30716524 119.38927863 255.30776043 120.07637831 255.30837366 120.78429919 C255.30958549 122.18046117 255.31079963 123.57662314 255.31201603 124.97278512 C255.3228972 138.07370244 255.32072824 151.17459404 255.31463119 164.27551281 C255.30947957 176.21764823 255.32066982 188.15970163 255.33972941 200.10182083 C255.35919055 212.39097309 255.36734824 224.68008675 255.36360615 236.96925449 C255.36170427 243.85736852 255.36408036 250.74541306 255.37832069 257.6335144 C255.39161093 264.12766454 255.38886293 270.62169316 255.37590981 277.11584473 C255.37356448 279.48393816 255.37620418 281.85204334 255.38453293 284.22012329 C255.58625441 346.09975301 228.76187737 398.89381045 189 445 C188.55253418 445.56041992 188.10506836 446.12083984 187.64404297 446.69824219 C186.46992878 448.16556296 185.2389772 449.58702092 184 451 C183.34 451 182.68 451 182 451 C181.76539063 451.56074219 181.53078125 452.12148438 181.2890625 452.69921875 C177.40488213 459.6318922 170.03914113 465.11072401 164.0390625 470.23828125 C161.7730777 472.19605739 159.57856506 474.22228948 157.375 476.25 C151.77256758 481.29815828 145.88465799 485.92244425 139.91259766 490.52001953 C137.98739724 492.0097521 136.0770228 493.5169948 134.16796875 495.02734375 C118.28264301 507.49935804 101.35471476 518.67978843 84 529 C82.79786822 529.7338693 81.59606486 530.46827675 80.39453125 531.203125 C67.28969836 539.14263259 53.6523752 546.05988437 40 553 C38.87754883 553.57218262 37.75509766 554.14436523 36.59863281 554.73388672 C25.09060984 560.58881627 13.53018061 566.32494635 1.8125 571.75 C0.92199951 572.16862305 0.03149902 572.58724609 -0.88598633 573.01855469 C-11.66725949 577.92943449 -11.66725949 577.92943449 -17.15356445 576.39941406 C-19.67875691 575.44987665 -22.11221181 574.3787948 -24.5625 573.25 C-25.47217529 572.84531494 -26.38185059 572.44062988 -27.3190918 572.02368164 C-36.85191049 567.72840647 -46.18673364 563.02972002 -55.49609375 558.27392578 C-58.4419446 556.77514948 -61.40172657 555.30601728 -64.36401367 553.84008789 C-73.3334233 549.39752728 -82.17356845 544.71908221 -91 540 C-91.66 540.66 -92.32 541.32 -93 542 C-93 540.68 -93 539.36 -93 538 C-93.87382324 537.73590332 -94.74764648 537.47180664 -95.64794922 537.19970703 C-98.94265334 536.02052451 -101.64213026 534.60955987 -104.6328125 532.8046875 C-105.68726563 532.17046875 -106.74171875 531.53625 -107.828125 530.8828125 C-109.46007812 529.88894531 -109.46007812 529.88894531 -111.125 528.875 C-112.18976563 528.235625 -113.25453125 527.59625 -114.3515625 526.9375 C-121.707211 522.49197457 -128.88845494 517.82521656 -136 513 C-136.63260742 512.57235352 -137.26521484 512.14470703 -137.91699219 511.70410156 C-150.70121227 503.01973081 -163.16973133 493.9508501 -175 484 C-175.96035156 483.22527344 -176.92070312 482.45054687 -177.91015625 481.65234375 C-186.41502217 474.69369685 -194.17533292 467.01301137 -201.9375 459.25 C-202.48174622 458.70666016 -203.02599243 458.16332031 -203.58673096 457.60351562 C-221 440.18696391 -221 440.18696391 -221 437 C-221.66 437 -222.32 437 -223 437 C-224.35351562 435.49389648 -224.35351562 435.49389648 -225.90625 433.37109375 C-226.76718262 432.20102783 -226.76718262 432.20102783 -227.64550781 431.00732422 C-228.25749023 430.15928223 -228.86947266 429.31124023 -229.5 428.4375 C-230.1300293 427.57141113 -230.76005859 426.70532227 -231.40917969 425.81298828 C-236.81474414 418.34010491 -242.066405 410.79299978 -247 403 C-247.40138184 402.37013184 -247.80276367 401.74026367 -248.21630859 401.09130859 C-253.80700947 392.22811033 -258.54389246 383.0750438 -262.9375 373.5625 C-263.39825928 372.56806885 -263.85901855 371.5736377 -264.33374023 370.54907227 C-266.80641583 365.07310989 -268.82432215 359.70050305 -270.32641602 353.87866211 C-270.82826976 351.79794523 -270.82826976 351.79794523 -273 351 C-273.73175012 348.57723071 -274.33313593 346.21692924 -274.875 343.75 C-275.12890503 342.62827393 -275.12890503 342.62827393 -275.38793945 341.48388672 C-276.74528556 335.38301925 -277.98967866 329.25899554 -279.1875 323.125 C-279.35427246 322.28291992 -279.52104492 321.44083984 -279.69287109 320.57324219 C-281.53253318 310.88145612 -282.14914609 301.24437169 -282.14717102 291.391922 C-282.15084771 290.38361397 -282.1545244 289.37530594 -282.1583125 288.33644313 C-282.16924271 284.98967092 -282.17317471 281.64292987 -282.17700195 278.29614258 C-282.18327419 275.88388472 -282.18992165 273.47162782 -282.19691467 271.05937195 C-282.21604445 263.85140859 -282.22672219 256.64344481 -282.23564246 249.43546322 C-282.23915739 246.71689537 -282.24330312 243.99832866 -282.24748212 241.27976177 C-282.26592429 229.28244549 -282.28167853 217.28512917 -282.28938007 205.28780079 C-282.29128962 202.36089387 -282.29321003 199.43398696 -282.29516602 196.50708008 C-282.29564976 195.77970784 -282.2961335 195.05233561 -282.2966319 194.30292179 C-282.30494529 182.50109999 -282.33031496 170.69937909 -282.36274669 158.8976014 C-282.39582576 146.76087933 -282.41382899 134.62420863 -282.41702431 122.48744124 C-282.41918701 115.68083672 -282.42790203 108.87438004 -282.45348549 102.0678196 C-282.47747459 95.67129105 -282.48101312 89.27495649 -282.47072411 82.87838936 C-282.47022797 80.53223536 -282.47657125 78.18606837 -282.49028015 75.83995438 C-282.5079577 72.63535867 -282.50091283 69.43172331 -282.48774719 66.22712708 C-282.50420106 64.83757623 -282.50420106 64.83757623 -282.52098733 63.41995364 C-282.46230528 57.49723948 -281.41138126 52.92469831 -278 48 C-273.66758463 44.21261796 -269.30580059 43.12308792 -263.75 42.24609375 C-262.92937073 42.10430695 -262.10874146 41.96252014 -261.26324463 41.81643677 C-258.51087739 41.34375883 -255.75557709 40.89105754 -253 40.4375 C-251.0176298 40.09982969 -249.03554014 39.76050889 -247.05371094 39.41967773 C-242.71707743 38.67490474 -238.37938835 37.93671923 -234.04101562 37.20214844 C-222.75846377 35.28421763 -211.49232139 33.27249201 -200.22473145 31.26889038 C-196.88480268 30.67506055 -193.54456547 30.08298574 -190.20423508 29.49141979 C-172.92375524 26.43061981 -155.65802907 23.29637355 -138.40264893 20.09707642 C-115.80046263 15.91229338 -93.15759859 11.95852692 -70.51334381 8.00900459 C-68.21094566 7.60724307 -65.90868935 7.20467609 -63.60644531 6.80203247 C-60.62527876 6.28079799 -57.64345514 5.76357035 -54.66113281 5.24899292 C-47.851996 4.06852264 -41.06674069 2.83186648 -34.29980469 1.42773438 C-22.07152431 -1.08947037 -12.29129298 -2.81577803 0 0 Z M-20.49414062 51.75244141 C-21.38196228 51.9225322 -22.26978394 52.09262299 -23.18450928 52.26786804 C-24.65552094 52.5567968 -24.65552094 52.5567968 -26.15625 52.8515625 C-27.22925354 53.05807938 -28.30225708 53.26459625 -29.40777588 53.47737122 C-31.81205063 53.94037231 -34.21594019 54.40537667 -36.61950684 54.87203979 C-42.79729166 56.07076015 -48.97767281 57.25589524 -55.15813446 58.44072533 C-56.72740289 58.74158991 -58.29664153 59.04260993 -59.86585236 59.3437748 C-84.51089446 64.07271991 -109.17649028 68.69338781 -133.83960438 73.32694244 C-139.69082611 74.42627075 -145.54188511 75.52646379 -151.39293289 76.62671757 C-156.39883742 77.56796278 -161.40481579 78.50881479 -166.41082001 79.44952965 C-168.73931282 79.88711412 -171.06778958 80.32478408 -173.39624786 80.76255226 C-175.59086892 81.17510116 -177.78553105 81.58743159 -179.98023605 81.99953365 C-182.10099359 82.39789761 -184.22162488 82.7969343 -186.34212112 83.19668674 C-192.05077637 84.27030573 -197.7629067 85.32023036 -203.48059082 86.34475708 C-204.71606785 86.56799432 -205.95154488 86.79123156 -207.2244606 87.02123356 C-209.60627874 87.45089046 -211.9889878 87.8756459 -214.37267685 88.29479885 C-215.97898153 88.58569189 -215.97898153 88.58569189 -217.61773682 88.88246155 C-218.56235905 89.05040757 -219.50698128 89.2183536 -220.48022842 89.39138889 C-222.93594364 89.9845282 -224.84775279 90.68435162 -227 92 C-228.57183428 95.14366857 -228.14425042 98.50612887 -228.14044189 101.9577179 C-228.14341302 102.7899052 -228.14638414 103.62209251 -228.1494453 104.47949761 C-228.15815802 107.28492575 -228.1596428 110.09031133 -228.16113281 112.89575195 C-228.16575974 114.90135795 -228.17078423 116.90696306 -228.17617798 118.91256714 C-228.18932949 124.37856011 -228.19575408 129.84454078 -228.20018864 135.31054711 C-228.20311928 138.73160673 -228.20722442 142.152663 -228.21169281 145.57372093 C-228.22538452 156.29358985 -228.23503892 167.0134511 -228.2388947 177.73332816 C-228.24335817 190.07390711 -228.26081896 202.41437434 -228.2898953 214.75491935 C-228.31161543 224.30850201 -228.32160471 233.86205351 -228.32293582 243.41566056 C-228.32397791 249.11223179 -228.32975562 254.80869826 -228.34775543 260.5052433 C-228.36441185 265.88229262 -228.36630773 271.2591605 -228.35761642 276.63622665 C-228.35685493 278.59311985 -228.36106897 280.55002349 -228.37107468 282.50689125 C-228.53968818 317.58882878 -219.62157045 348.23298901 -201 378 C-200.00033203 379.62615234 -200.00033203 379.62615234 -198.98046875 381.28515625 C-191.9128172 392.3404512 -183.2744456 402.50737654 -174.53515625 412.27734375 C-173.4419876 413.50402918 -172.36840403 414.74828807 -171.30859375 416.00390625 C-167.78900326 420.15340108 -164.10771842 423.77718593 -159.95703125 427.29296875 C-158.10019075 428.91260807 -156.39602508 430.60123291 -154.6875 432.375 C-151.00803506 436.11273701 -146.99659919 439.36394742 -142.90625 442.640625 C-141.06412955 444.13610989 -139.24759785 445.66415745 -137.46875 447.234375 C-127.99809212 455.53512808 -117.44877503 462.22999672 -106.91894531 469.09619141 C-104.29186616 470.80963764 -101.67206873 472.53351379 -99.0546875 474.26171875 C-97.59942068 475.21685064 -96.14372455 476.17132892 -94.6875 477.125 C-94.06206299 477.53741943 -93.43662598 477.94983887 -92.79223633 478.37475586 C-63.94962993 498.20578672 -63.94962993 498.20578672 -32 509 C-31.95318264 486.5550176 -31.91796357 464.1100433 -31.89637566 441.6650219 C-31.88608352 431.24232216 -31.8720628 420.81965286 -31.84912109 410.39697266 C-31.82912388 401.30763926 -31.81626859 392.21832791 -31.81182301 383.12897313 C-31.80922632 378.32072476 -31.80316635 373.51253944 -31.78853989 368.70431137 C-31.77485572 364.16863725 -31.77079902 359.6330515 -31.77378464 355.0973587 C-31.77323928 353.44230034 -31.7693269 351.78723869 -31.76158905 350.13219833 C-31.6919187 334.44676248 -31.80274439 317.89652916 -42 305 C-49.67613227 297.32386773 -59.71641409 296.37207143 -70.0625 294.625 C-85.31896443 291.91024979 -99.13035131 288.12042791 -113 281 C-114.14210938 280.41476562 -115.28421875 279.82953125 -116.4609375 279.2265625 C-125.87231763 274.21478488 -134.36266293 267.91603688 -141.73828125 260.17578125 C-142.95642015 258.77274895 -142.95642015 258.77274895 -145 259 C-145.25910156 258.41476562 -145.51820313 257.82953125 -145.78515625 257.2265625 C-147.08923048 254.83645861 -148.52544314 253.30693271 -150.4375 251.375 C-160.56259574 240.16375763 -167.71101054 226.06406385 -173 212 C-173.23944336 211.36416992 -173.47888672 210.72833984 -173.72558594 210.07324219 C-176.6587296 202.054898 -178.54039837 193.9920564 -179.875 185.5625 C-180.00745117 184.74620117 -180.13990234 183.92990234 -180.27636719 183.08886719 C-181.15095778 176.93666119 -181.95449164 169.93173747 -178.375 164.5625 C-172.47772247 160.68271215 -166.00294538 160.28836527 -159.1875 161.5 C-158.465625 161.665 -157.74375 161.83 -157 162 C-156.34 162 -155.68 162 -155 162 C-117.96376231 164.48391184 -81.20919528 178.78075156 -56 207 C-38.85331697 227.12644197 -25.76119634 251.39602504 -19.80078125 277.28515625 C-18.71136785 279.61809518 -17.33877067 280.08068688 -15 281 C-12.78049804 277.59269821 -11.47203357 274.67001904 -10.60546875 270.703125 C-10.37553223 269.67453369 -10.1455957 268.64594238 -9.90869141 267.58618164 C-9.67069824 266.4852417 -9.43270508 265.38430176 -9.1875 264.25 C-8.65801239 261.89963584 -8.1280524 259.54937805 -7.59765625 257.19921875 C-6.81411515 253.68204242 -6.03570196 250.16396191 -5.26904297 246.64306641 C2.07026415 213.08402154 15.93020521 183.86368796 45.6328125 164.59375 C69.08098028 149.90493783 94.80540043 142.69451251 122.3125 141.3125 C123.23144043 141.26399902 124.15038086 141.21549805 125.09716797 141.16552734 C141.82857789 140.45541694 141.82857789 140.45541694 147 145 C154.27520656 163.16239948 146.38653608 189.83638054 139.3203125 207.23046875 C126.09698944 238.04493606 100.35622114 262.43512571 69.5625 275.3125 C56.34669469 280.24584478 43.01420785 283.45465132 29.0546875 285.48095703 C20.7741602 286.76059548 12.5016166 288.77476084 7.3151207 295.8491869 C1.49431001 305.36882712 2.58595041 317.24872342 2.64355469 327.9621582 C2.64276267 329.86535231 2.64066191 331.76854626 2.63735962 333.67173767 C2.63225109 338.81189926 2.64570833 343.95185867 2.66288662 349.09198785 C2.6779822 354.48101301 2.67674994 359.87003621 2.67755127 365.25907898 C2.68123641 374.3014163 2.69616865 383.34367736 2.71875 392.38598633 C2.74766636 403.98859008 2.75797888 415.59113263 2.7624321 427.1937685 C2.76641297 437.18122789 2.77891049 447.16867401 2.79277897 457.15612388 C2.7968734 460.36202511 2.79980123 463.56792588 2.80257416 466.77382851 C2.80747306 471.80947109 2.81768646 476.84507675 2.83201218 481.88070107 C2.83652762 483.72778998 2.83937206 485.57488386 2.84041977 487.421978 C2.84217108 489.94385654 2.8500685 492.46564342 2.85955811 494.98750305 C2.85869162 495.71736666 2.85782514 496.44723026 2.8569324 497.19921094 C2.87969549 501.23455142 3.22168564 505.04012751 4 509 C26.80227937 500.26653645 48.23292979 488.77912533 69 476 C69.82048828 475.50145508 70.64097656 475.00291016 71.48632812 474.48925781 C91.14243356 462.53323859 109.51531981 448.92304125 126.4453125 433.3359375 C128.61942099 431.34799121 130.82422776 429.41466662 133.0625 427.5 C140.67400499 420.8515834 147.5018399 413.65962229 153.796875 405.7578125 C155.21704641 403.9800802 156.66340172 402.2228031 158.140625 400.4921875 C174.68031181 381.03723216 187.26381474 358.31372509 195 334 C195.21237305 333.35353516 195.42474609 332.70707031 195.64355469 332.04101562 C203.85944896 306.38812551 201.30224972 276.98970702 201.26865101 250.38710308 C201.2635171 245.03819779 201.26830129 239.68929869 201.27142334 234.34039307 C201.27503548 225.38772321 201.27033032 216.43508665 201.26074219 207.48242188 C201.24979613 197.14255827 201.25343855 186.80277317 201.264395 176.46291137 C201.27346749 167.54176593 201.27475533 158.62064411 201.26951766 149.69949555 C201.26640629 144.38888143 201.26596707 139.07830429 201.27259064 133.76769257 C201.27836521 128.79339014 201.27436523 123.81918964 201.26280212 118.84489822 C201.26015901 117.02198328 201.26091468 115.19905974 201.26532745 113.37614822 C201.27079637 110.88783642 201.26393328 108.39985109 201.25396729 105.91156006 C201.25842873 105.19192825 201.26289017 104.47229644 201.26748681 103.73085761 C201.23426649 99.45249333 200.5633404 95.98016941 199 92 C198.34 92 197.68 92 197 92 C196.34 91.34 195.68 90.68 195 90 C192.34620417 89.25255236 192.34620417 89.25255236 189.16674805 88.6940918 C187.92536072 88.45539871 186.68397339 88.21670563 185.40496826 87.97077942 C184.02391313 87.71344199 182.642829 87.45626017 181.26171875 87.19921875 C179.81792722 86.92467309 178.37426536 86.64944469 176.9307251 86.37358093 C173.0065753 85.62572092 169.08065051 84.88758997 165.15433884 84.15117645 C161.00947906 83.37209277 156.86629228 82.58420904 152.72290039 81.79736328 C144.99602777 80.33143738 137.26766682 78.87352956 129.53859806 77.41923141 C123.96208006 76.36985496 118.38606311 75.31786944 112.81054688 74.26318359 C112.07829234 74.12467295 111.34603781 73.9861623 110.59159374 73.84345436 C109.13251018 73.56744894 107.67342756 73.29143847 106.21434593 73.01542282 C93.45361998 70.60186725 80.69078489 68.19969403 67.92648888 65.80509567 C58.35889532 64.01005177 48.79323853 62.205059 39.22914124 60.39147949 C33.97540706 59.39532349 28.72108684 58.40227616 23.46660137 57.4100914 C19.90281353 56.73696998 16.33934121 56.06226829 12.77658081 55.38372803 C8.872802 54.64027132 4.96771664 53.90383755 1.0625 53.16796875 C-0.09233383 52.94679886 -1.24716766 52.72562897 -2.43699646 52.49775696 C-4.02859337 52.19952278 -4.02859337 52.19952278 -5.65234375 51.89526367 C-6.57007568 51.72129562 -7.48780762 51.54732758 -8.43334961 51.36808777 C-12.61374762 50.76856966 -16.36121403 50.94892702 -20.49414062 51.75244141 Z " fill="#0DAF6A" transform="translate(525,232)"/>
<path d="M0 0 C6.48394409 5.3817597 12.33642789 11.275341 18.24023438 17.27929688 C38.21481122 37.45856622 62.05278569 53.91563852 86 69 C86.74040527 69.47002441 87.48081055 69.94004883 88.24365234 70.42431641 C109.85970491 84.19671552 109.85970491 84.19671552 133 95 C133 95.66 133 96.32 133 97 C133.87946289 97.27602051 134.75892578 97.55204102 135.66503906 97.83642578 C138.72934234 98.90556703 141.47602304 100.13802482 144.359375 101.6171875 C145.38023193 102.13643799 146.40108887 102.65568848 147.45288086 103.19067383 C148.54093018 103.74650146 149.62897949 104.3023291 150.75 104.875 C155.49483203 107.26038188 160.24611727 109.63272327 165 112 C166.18126465 112.58894043 167.3625293 113.17788086 168.57958984 113.78466797 C172.02077082 115.48548155 175.47612658 117.15323367 178.9375 118.8125 C179.98325195 119.33376465 181.02900391 119.8550293 182.10644531 120.39208984 C188.96014142 123.63215875 194.43427821 124.69609486 202 124 C201.67 124.99 201.34 125.98 201 127 C194.44729221 128.65802027 190.45585369 127.02252543 184.4375 124.25 C183.52782471 123.84531494 182.61814941 123.44062988 181.6809082 123.02368164 C172.14808951 118.72840647 162.81326636 114.02972002 153.50390625 109.27392578 C150.5580554 107.77514948 147.59827343 106.30601728 144.63598633 104.84008789 C135.6665767 100.39752728 126.82643155 95.71908221 118 91 C117.34 91.66 116.68 92.32 116 93 C116 91.68 116 90.36 116 89 C115.12617676 88.73590332 114.25235352 88.47180664 113.35205078 88.19970703 C110.05734666 87.02052451 107.35786974 85.60955987 104.3671875 83.8046875 C103.31273437 83.17046875 102.25828125 82.53625 101.171875 81.8828125 C100.08390625 81.22023438 98.9959375 80.55765625 97.875 79.875 C96.81023437 79.235625 95.74546875 78.59625 94.6484375 77.9375 C87.292789 73.49197457 80.11154506 68.82521656 73 64 C72.36739258 63.57235352 71.73478516 63.14470703 71.08300781 62.70410156 C58.30027533 54.02074134 45.82269176 44.95770376 34 35 C32.98164063 34.16726563 31.96328125 33.33453125 30.9140625 32.4765625 C23.28509068 26.16970493 16.16107441 19.39768359 9.125 12.4375 C8.22595947 11.55602295 7.32691895 10.6745459 6.40063477 9.76635742 C5.56975342 8.93467041 4.73887207 8.1029834 3.8828125 7.24609375 C2.75963623 6.12738892 2.75963623 6.12738892 1.61376953 4.98608398 C0 3 0 3 0 0 Z " fill="#14924F" transform="translate(316,681)"/>
<path d="M0 0 C0 0.66 0 1.32 0 2 C-0.99902344 2.19335938 -1.99804688 2.38671875 -3.02734375 2.5859375 C-4.31769531 2.84632813 -5.60804688 3.10671875 -6.9375 3.375 C-8.22527344 3.63023437 -9.51304687 3.88546875 -10.83984375 4.1484375 C-11.88269531 4.42945313 -12.92554688 4.71046875 -14 5 C-15.65811971 8.31623942 -15.13263072 12.02312898 -15.12025452 15.66848755 C-15.12110894 16.57674502 -15.12196337 17.4850025 -15.12284368 18.42078292 C-15.1244987 21.48252731 -15.11897675 24.54421764 -15.11352539 27.60595703 C-15.1132435 29.79341633 -15.11340129 31.98087572 -15.1139679 34.16833496 C-15.11425579 40.12258032 -15.10836039 46.07680569 -15.10139394 52.03104639 C-15.09515903 58.24773718 -15.09455649 64.46442839 -15.09336853 70.68112183 C-15.0906097 81.12058859 -15.08435586 91.56004849 -15.07543945 101.99951172 C-15.06626401 112.75341759 -15.05918382 123.50732147 -15.05493164 134.26123047 C-15.05466892 134.92381804 -15.05440619 135.58640561 -15.05413551 136.26907159 C-15.0528305 139.59299413 -15.05156903 142.91691668 -15.05032361 146.24083924 C-15.03986013 173.82723129 -15.02226146 201.41361513 -15 229 C-18.37043435 223.15791379 -18.14752657 216.84367515 -18.14044189 210.30174255 C-18.14489858 209.00690015 -18.14489858 209.00690015 -18.1494453 207.68589932 C-18.15810053 204.80027389 -18.15963782 201.9146901 -18.16113281 199.02905273 C-18.16576303 196.95748812 -18.17078797 194.88592435 -18.17617798 192.81436157 C-18.18927961 187.19265993 -18.19574194 181.57097022 -18.20018864 175.9492557 C-18.20312145 172.43784408 -18.20722654 168.9264357 -18.21169281 165.41502571 C-18.22535848 154.43037126 -18.23503112 143.44572425 -18.2388947 132.46106189 C-18.24338089 119.77624142 -18.26095869 107.0915284 -18.2898953 94.40674061 C-18.3114872 84.60194948 -18.32159756 74.79718866 -18.32293582 64.992374 C-18.32398513 59.13540676 -18.3299205 53.27854067 -18.34775543 47.42159843 C-18.36419419 41.91650588 -18.36641205 36.411591 -18.35761642 30.9064827 C-18.35684394 28.88481357 -18.36121642 26.86313503 -18.37107468 24.84148979 C-18.38373188 22.08453771 -18.37795148 19.32822098 -18.36749268 16.5712738 C-18.37554908 15.76894064 -18.38360548 14.96660747 -18.39190602 14.13996118 C-18.35144338 9.58856464 -17.84616208 6.60969235 -15 3 C-10.38415823 0.42392069 -5.24114987 -0.40316537 0 0 Z " fill="#0E8E4C" transform="translate(313,319)"/>
<path d="M0 0 C3.25 0.125 3.25 0.125 7 1 C11.20171485 5.79646736 11.57313335 9.56563203 11.49447632 15.62905884 C11.49930515 16.48482557 11.50413398 17.3405923 11.50910914 18.22229135 C11.52035922 21.08291463 11.50307691 23.94263985 11.48583984 26.80322266 C11.4879862 28.85670717 11.49186462 30.9101905 11.49734497 32.96366882 C11.50703552 38.53583822 11.4917393 44.10768704 11.47143888 49.67981768 C11.45387024 55.50890265 11.4573929 61.33797769 11.4581604 67.16708374 C11.45628765 76.95389165 11.43892561 86.74057549 11.41162109 96.52734375 C11.38015306 107.84840313 11.36962553 119.16932671 11.3710922 130.49042666 C11.37231211 141.37633121 11.3621083 152.26219148 11.34550858 163.14808273 C11.33844093 167.78356649 11.3347818 172.41903458 11.33372116 177.05452347 C11.33171473 182.5095423 11.31952508 187.96444677 11.29938889 193.41942787 C11.29353884 195.42376696 11.29108816 197.42811921 11.29224396 199.43246651 C11.29322297 202.16340276 11.28193797 204.89401699 11.26742554 207.62490845 C11.27052274 208.42237256 11.27361995 209.21983667 11.276811 210.04146636 C11.24339756 213.83567615 11.14171015 216.78388898 9 220 C8.99576806 218.92232518 8.99153612 217.84465036 8.98717594 216.73431873 C8.88404473 190.52860759 8.77530428 164.32292431 8.66066074 138.11726093 C8.60535058 125.44447567 8.55187217 112.77168759 8.50268555 100.09887695 C8.45981671 89.05502156 8.41353185 78.0111867 8.36312145 66.96736306 C8.33654231 61.11817999 8.31168972 55.26900093 8.29092598 49.41979408 C8.27133607 43.91645192 8.24718516 38.41314879 8.21950912 32.90984154 C8.21015118 30.88818953 8.20247139 28.86652897 8.19658089 26.84486389 C8.18829839 24.08776133 8.17401562 21.33075294 8.15821838 18.57368469 C8.15724028 17.77114976 8.15626217 16.96861482 8.15525442 16.14176065 C8.12693887 12.30665279 7.93037763 8.7285329 7 5 C5.68 5.33 4.36 5.66 3 6 C3 4.33333333 3 2.66666667 3 1 C2.01 0.67 1.02 0.34 0 0 Z " fill="#0C8C45" transform="translate(717,320)"/>
<path d="M0 0 C0.33 0 0.66 0 1 0 C1.13071043 24.20906337 1.26111318 48.41812837 1.39115143 72.62719536 C1.45153996 83.86832634 1.51202849 95.10945677 1.57275391 106.35058594 C1.62569283 116.15037369 1.67844264 125.95016245 1.73096704 135.74995244 C1.75877482 140.93698967 1.78667614 146.12402635 1.81480408 151.31106186 C1.84130163 156.1979911 1.86754539 161.08492163 1.89359856 165.97185326 C1.90317986 167.76081708 1.91285211 169.54978042 1.92262459 171.33874321 C2.0044761 186.33821476 2.0044761 186.33821476 2.01940918 192.94607544 C2.0211187 193.67235201 2.02282822 194.39862858 2.02458954 195.14691353 C1.99126298 197.65842875 1.78509203 200.13044477 1.5 202.625 C1.4071875 203.46289062 1.314375 204.30078125 1.21875 205.1640625 C1.11046875 206.07285156 1.11046875 206.07285156 1 207 C0.34 206.67 -0.32 206.34 -1 206 C-1.17753774 180.9128647 -1.34318337 155.82567508 -1.49477577 130.73836899 C-1.56544246 119.08920645 -1.63996117 107.44009261 -1.72363281 95.79101562 C-1.79657374 85.63453535 -1.86220091 75.47803827 -1.91914403 65.32145524 C-1.94953162 59.94650632 -1.98351465 54.57163571 -2.02626419 49.19676971 C-2.06644011 44.13092812 -2.09678746 39.06511987 -2.11981392 33.99917221 C-2.12992782 32.14652333 -2.14353743 30.29388947 -2.16103554 28.44129562 C-2.25049576 18.75142839 -2.11162883 9.52024131 0 0 Z " fill="#0E934D" transform="translate(527,537)"/>
<path d="M0 0 C2.44227849 2.18488044 3.62099599 4.04540208 4.76171875 7.10546875 C5.07133545 7.91564453 5.38095215 8.72582031 5.69995117 9.56054688 C6.02584229 10.42744141 6.3517334 11.29433594 6.6875 12.1875 C15.83015869 35.60546441 28.63918962 55.90753421 45 75 C45.71285156 75.84304688 46.42570312 76.68609375 47.16015625 77.5546875 C49.80322276 80.63342432 52.52828433 83.54659587 55.4375 86.375 C58 89 58 89 58 91 C58.83337891 91.33837891 58.83337891 91.33837891 59.68359375 91.68359375 C62.68440319 93.38894414 64.67937537 95.56706316 67.0625 98.0625 C71.5340218 102.65286123 76.2021375 106.78735919 81.2265625 110.77734375 C83.04292036 112.23298829 84.83123351 113.72450413 86.5859375 115.25390625 C94.17212292 121.85106176 102.29492117 127.40366216 110.69848633 132.91064453 C111.62685303 133.52665527 112.55521973 134.14266602 113.51171875 134.77734375 C114.35178467 135.32640381 115.19185059 135.87546387 116.05737305 136.44116211 C118 138 118 138 119 141 C114.62517304 139.50356386 111.13117437 137.15023471 107.4375 134.4375 C106.82326172 133.99132324 106.20902344 133.54514648 105.57617188 133.08544922 C104.31554126 132.16729643 103.05690551 131.24639833 101.80029297 130.32275391 C100.17531625 129.12881251 98.54315605 127.94466298 96.91015625 126.76171875 C75.02458977 110.69271893 53.59300989 91.54567635 37 70 C36.23945313 69.06800781 35.47890625 68.13601563 34.6953125 67.17578125 C21.43098422 50.62715443 0 22.34428289 0 0 Z " fill="#129650" transform="translate(301,563)"/>
<path d="M0 0 C0.66 0 1.32 0 2 0 C1.41875717 3.67213961 0.42287315 6.43073623 -1.40625 9.66015625 C-1.89843018 10.5305957 -2.39061035 11.40103516 -2.89770508 12.29785156 C-3.4264624 13.21018555 -3.95521973 14.12251953 -4.5 15.0625 C-5.31150513 16.47160645 -5.31150513 16.47160645 -6.1394043 17.90917969 C-10.30412753 25.03465036 -14.81243446 31.57391588 -20 38 C-21.0836885 39.43723227 -22.16703382 40.87472338 -23.25 42.3125 C-49.50673713 75.80199574 -49.50673713 75.80199574 -63 82 C-63 82.66 -63 83.32 -63 84 C-64.546875 85.41015625 -64.546875 85.41015625 -66.75 87.0625 C-67.57628906 87.68640625 -68.40257812 88.3103125 -69.25390625 88.953125 C-70.16011719 89.62859375 -71.06632813 90.3040625 -72 91 C-72.91652344 91.69609375 -73.83304688 92.3921875 -74.77734375 93.109375 C-77.83724023 95.42586039 -80.91260017 97.72038787 -84 100 C-84.54285645 100.4012207 -85.08571289 100.80244141 -85.64501953 101.21582031 C-93.67288886 107.12121762 -101.91127651 112.56337519 -110.40625 117.7734375 C-113.65973054 119.77115815 -116.83704478 121.86207657 -120 124 C-120.66 123.67 -121.32 123.34 -122 123 C-118.49487158 119.02690941 -114.39308836 116.70046196 -109.875 114.0625 C-100.16419191 108.25579276 -91.03445146 101.8022613 -82 95 C-81.35514648 94.51499023 -80.71029297 94.02998047 -80.04589844 93.53027344 C-72.57440828 87.87289706 -65.51345723 81.89940726 -58.67578125 75.4921875 C-56.42734614 73.39802458 -54.14609411 71.37259338 -51.8125 69.375 C-44.59422787 63.08138257 -38.21264849 56.27382582 -32.23828125 48.79296875 C-30.80390419 47.00312652 -29.34482266 45.23264294 -27.85546875 43.48828125 C-16.59467588 30.23909613 -7.77260103 15.5059465 0 0 Z " fill="#14964F" transform="translate(710,589)"/>
<path d="M0 0 C2.19454148 3.29181222 3.37684938 6.61908569 4.6875 10.3125 C12.13765205 30.59538388 23.82517582 50.45537845 41 64 C42.28970703 65.04414063 42.28970703 65.04414063 43.60546875 66.109375 C55.3049806 75.26688765 67.93227949 82.20637606 82 87 C82 87.33 82 87.66 82 88 C74.68956687 88.43514483 69.34322313 85.26703751 63 82 C61.845 81.40832031 60.69 80.81664062 59.5 80.20703125 C51.85115965 76.06675495 45.33858965 71.28820121 38.83984375 65.515625 C37.07364306 63.95106758 35.26499209 62.43163803 33.3984375 60.98828125 C28.92287488 57.27808357 25.56680191 52.56190967 22 48 C21.32582031 47.15308594 20.65164063 46.30617188 19.95703125 45.43359375 C11.27270718 34.07983673 -1.73343632 14.90755237 0 0 Z " fill="#12914C" transform="translate(349,432)"/>
<path d="M0 0 C0.33 0 0.66 0 1 0 C-1.75442426 28.38935001 -21.91041379 58.08619786 -39 80 C-39.47743652 80.61875 -39.95487305 81.2375 -40.44677734 81.875 C-51.30338025 95.94210181 -51.30338025 95.94210181 -56 101 C-56.66 101 -57.32 101 -58 101 C-56.39491397 97.21594243 -53.87755981 94.4164107 -51.1875 91.375 C-28.05209764 64.51044719 -11.88890713 33.25397259 0 0 Z " fill="#15944F" transform="translate(770,576)"/>
<path d="M0 0 C6.41502031 13.75439513 0.62870731 36.20358015 -3.15625 50.171875 C-4 52 -4 52 -7 54 C-6.77280273 53.06824951 -6.77280273 53.06824951 -6.54101562 52.11767578 C-3.57829181 39.64460851 -1.49569076 27.53856611 -1.4375 14.6875 C-1.42332031 13.57971191 -1.40914062 12.47192383 -1.39453125 11.33056641 C-1.40742187 10.29722168 -1.4203125 9.26387695 -1.43359375 8.19921875 C-1.44447021 7.29002686 -1.45534668 6.38083496 -1.46655273 5.4440918 C-2.20928566 2.04111728 -3.10107556 0.95328749 -6 -1 C-8.98224471 -1.53803246 -11.90005084 -1.46556922 -14.921875 -1.390625 C-16.21185394 -1.38213531 -16.21185394 -1.38213531 -17.52789307 -1.37347412 C-20.26916649 -1.35111951 -23.00912304 -1.30092602 -25.75 -1.25 C-27.61065818 -1.22993376 -29.47133689 -1.21168321 -31.33203125 -1.1953125 C-35.88852666 -1.15125784 -40.44404022 -1.08223754 -45 -1 C-44.67 -1.66 -44.34 -2.32 -44 -3 C-42.12084961 -3.42651367 -42.12084961 -3.42651367 -39.65234375 -3.66796875 C-38.29012695 -3.80211182 -38.29012695 -3.80211182 -36.90039062 -3.93896484 C-35.92263672 -4.02098145 -34.94488281 -4.10299805 -33.9375 -4.1875 C-32.94556641 -4.27209473 -31.95363281 -4.35668945 -30.93164062 -4.44384766 C-7.24739285 -6.25719674 -7.24739285 -6.25719674 0 0 Z " fill="#139752" transform="translate(673,377)"/>
<path d="M0 0 C0 0.66 0 1.32 0 2 C-9.47361504 3.83628985 -18.94910409 5.66249289 -28.42708397 7.47612 C-32.82881262 8.3187202 -37.22983791 9.16467988 -41.62939453 10.01855469 C-45.88131907 10.84364463 -50.13490707 11.65959906 -54.38975906 12.4694519 C-56.00653183 12.77880277 -57.62269683 13.09134896 -59.23820114 13.40725708 C-67.55263274 15.03098311 -75.48154175 16.4151729 -84 16 C-81.00802885 14.00535257 -79.43779698 13.52908765 -75.98461914 12.88671875 C-74.96247818 12.69311768 -73.94033722 12.4995166 -72.88722229 12.30004883 C-71.7810405 12.09790771 -70.6748587 11.8957666 -69.53515625 11.6875 C-68.39147079 11.47311279 -67.24778534 11.25872559 -66.06944275 11.0378418 C-62.40163556 10.35208313 -58.73210322 9.67607444 -55.0625 9 C-52.62423539 8.54487885 -50.18608291 8.08915654 -47.74804688 7.6328125 C-38.07922268 5.82961841 -28.41442511 4.03785697 -18.70481873 2.46606445 C-15.99526264 1.99918371 -13.31285119 1.45292989 -10.625 0.875 C-7.02447837 0.1316665 -3.69212736 -0.19432249 0 0 Z " fill="#139751" transform="translate(398,303)"/>
<path d="M0 0 C-1.07636719 0.54527344 -2.15273438 1.09054687 -3.26171875 1.65234375 C-28.92844261 14.82672795 -46.31655789 31.32624127 -61 56 C-62.17613324 52.52482329 -62.06921286 52.142478 -60.33203125 48.56640625 C-59.5099587 47.22075178 -58.66876421 45.88666042 -57.8125 44.5625 C-57.36197266 43.85601318 -56.91144531 43.14952637 -56.44726562 42.42163086 C-51.70403605 35.20702294 -46.12119773 29.05553782 -40 23 C-39.22398437 22.20207031 -38.44796875 21.40414063 -37.6484375 20.58203125 C-30.14460086 13.29737884 -21.0707034 8.0984453 -12 3 C-11.27586914 2.58830566 -10.55173828 2.17661133 -9.80566406 1.75244141 C-9.10924805 1.37651855 -8.41283203 1.0005957 -7.6953125 0.61328125 C-7.07930176 0.27723877 -6.46329102 -0.05880371 -5.82861328 -0.4050293 C-3.5440637 -1.1483467 -2.24109189 -0.76115473 0 0 Z " fill="#12944E" transform="translate(594,386)"/>
<path d="M0 0 C1.95804436 0.3350266 3.91634939 0.66853605 5.875 1 C8.2421875 1.4375 8.2421875 1.4375 10 2 C10.495 2.99 10.495 2.99 11 4 C8.9163691 3.85848172 6.83310062 3.71162064 4.75 3.5625 C3.58984375 3.48128906 2.4296875 3.40007812 1.234375 3.31640625 C-2 3 -2 3 -3.86767578 2.49975586 C-16.02048606 -0.34851557 -29.44783313 3.67045995 -41.375 6 C-44.35325025 6.57546998 -47.33206573 7.14737747 -50.31240845 7.71191406 C-52.15353484 8.06123496 -53.99345754 8.41698398 -55.83187866 8.78027344 C-60.65074294 9.70083146 -65.09389325 10.18604502 -70 10 C-67.06878193 8.04585462 -65.5540803 7.54129653 -62.1875 6.88671875 C-61.20765137 6.69279541 -60.22780273 6.49887207 -59.21826172 6.29907227 C-58.15623535 6.09725342 -57.09420898 5.89543457 -56 5.6875 C-54.8980127 5.47601318 -53.79602539 5.26452637 -52.66064453 5.04663086 C-50.31355212 4.59702227 -47.96604443 4.14957709 -45.61816406 3.70410156 C-42.02550597 3.00496351 -38.44690623 2.25456233 -34.8671875 1.4921875 C-22.63345051 -1.04982156 -12.31141706 -3.01085872 0 0 Z " fill="#199B58" transform="translate(525,232)"/>
<path d="M0 0 C0.6796875 1.65625 0.6796875 1.65625 1 4 C-9.23293276 27.75757817 -30.65575043 45.71601309 -52 59 C-52.99 59.66 -53.98 60.32 -55 61 C-57.1875 60.625 -57.1875 60.625 -59 60 C-58.28420776 59.58657349 -58.28420776 59.58657349 -57.55395508 59.16479492 C-46.83994045 52.92770325 -37.11737187 46.40725667 -28 38 C-26.84177734 36.98099609 -26.84177734 36.98099609 -25.66015625 35.94140625 C-15.06620949 26.11374859 -6.26490369 12.98751724 0 0 Z " fill="#12914B" transform="translate(661,442)"/>
<path d="M0 0 C0 0.66 0 1.32 0 2 C-8.03935855 3.57563701 -16.08061403 5.14105227 -24.12441826 6.69381714 C-27.86029198 7.41530971 -31.59544263 8.14017197 -35.32910156 8.87304688 C-38.93909871 9.58151451 -42.55078189 10.28072289 -46.16376114 10.97381592 C-47.53492952 11.23848295 -48.90548288 11.50635907 -50.27535629 11.77764893 C-57.92800135 13.29082113 -65.18733746 14.43207614 -73 14 C-69.45693128 11.63795419 -66.20501905 11.12442302 -62.09765625 10.4140625 C-61.31168564 10.27218506 -60.52571503 10.13030762 -59.71592712 9.98413086 C-57.16584978 9.52490572 -54.61421048 9.07505259 -52.0625 8.625 C-48.59452884 8.00289479 -45.12739362 7.37618001 -41.66015625 6.75 C-40.39046494 6.52179062 -40.39046494 6.52179062 -39.09512329 6.28897095 C-31.94830722 5.0014715 -24.82448058 3.61614129 -17.71118164 2.15478516 C-11.73095502 0.92724654 -6.12151344 -0.14575032 0 0 Z " fill="#139A54" transform="translate(472,289)"/>
<path d="M0 0 C-1.29802084 2.95837144 -2.49800106 4.68321036 -5.09765625 6.59375 C-6.03859131 7.29346924 -6.03859131 7.29346924 -6.99853516 8.00732422 C-8.02019775 8.74619873 -8.02019775 8.74619873 -9.0625 9.5 C-9.77712402 10.02480957 -10.49174805 10.54961914 -11.22802734 11.09033203 C-13.47849715 12.73654996 -15.73843077 14.36907483 -18 16 C-18.68078613 16.4959668 -19.36157227 16.99193359 -20.06298828 17.50292969 C-32.02448107 26.20802778 -44.41263629 34.2314404 -57 42 C-57.6919043 42.43828125 -58.38380859 42.8765625 -59.09667969 43.328125 C-60.68441785 44.29956459 -62.33773371 45.16245709 -64 46 C-64.99 45.67 -65.98 45.34 -67 45 C-66.08863281 44.44054687 -65.17726563 43.88109375 -64.23828125 43.3046875 C-44.32650671 31.00946731 -24.60730757 18.18806152 -6.43969727 3.40161133 C-2.21188344 0 -2.21188344 0 0 0 Z " fill="#14914C" transform="translate(668,718)"/>
<path d="M0 0 C6.53860121 0.68427222 11.05269206 8.2026857 15 13 C23.98246866 24.42148062 31.09859845 36.57217111 36.9375 49.875 C37.33976807 50.77935791 37.74203613 51.68371582 38.15649414 52.61547852 C40.12559412 57.23006067 41.54952232 60.87676114 41 66 C38.91105472 63.91105472 38.35283328 62.67583589 37.3359375 59.95703125 C37.02285645 59.13799316 36.70977539 58.31895508 36.38720703 57.47509766 C36.05317871 56.59644043 35.71915039 55.7177832 35.375 54.8125 C27.9965768 35.98120285 18.21640838 20.08654232 4.25 5.42578125 C2 3 2 3 0 0 Z " fill="#0F934D" transform="translate(460,432)"/>
<path d="M0 0 C3.21957673 3.04679085 5.3412089 6.61000976 7.625 10.375 C18.34521 27.76002578 30.5909878 43.63262692 44 59 C43.01 59.33 42.02 59.66 41 60 C39.66072279 58.54712339 38.32873153 57.08752741 37 55.625 C36.2575 54.81289063 35.515 54.00078125 34.75 53.1640625 C33 51 33 51 33 49 C32.34 49 31.68 49 31 49 C29.64648438 47.49389648 29.64648438 47.49389648 28.09375 45.37109375 C27.51955322 44.59064697 26.94535645 43.8102002 26.35375977 43.00610352 C25.74201904 42.15846436 25.13027832 41.3108252 24.5 40.4375 C23.872146 39.57503662 23.24429199 38.71257324 22.59741211 37.82397461 C0 6.60155204 0 6.60155204 0 0 Z " fill="#15914D" transform="translate(271,620)"/>
<path d="M0 0 C0 0.66 0 1.32 0 2 C-12.45800635 9.00172017 -25.07619018 15.68543795 -37.82330322 22.14382935 C-39.35744207 22.92277776 -40.88947731 23.70588317 -42.41937256 24.49313354 C-44.5888216 25.60772716 -46.76570748 26.70620964 -48.9453125 27.80078125 C-49.92531219 28.30924088 -49.92531219 28.30924088 -50.92510986 28.82797241 C-55.44862476 31.06777757 -55.44862476 31.06777757 -58.44091797 30.69995117 C-58.95541504 30.46896729 -59.46991211 30.2379834 -60 30 C-59.08863281 29.55011719 -58.17726563 29.10023438 -57.23828125 28.63671875 C-48.31900127 24.21454489 -39.4808274 19.65341596 -30.67260742 15.01416016 C-24.43476092 11.73446176 -18.15404396 8.55903478 -11.8359375 5.4375 C-9.42282229 4.21432314 -7.08140374 2.93279444 -4.75 1.5625 C-2 0 -2 0 0 0 Z " fill="#13904C" transform="translate(599,765)"/>
<path d="M0 0 C0.66 -0.33 1.32 -0.66 2 -1 C2 -0.34 2 0.32 2 1 C2.70125 0.97679687 3.4025 0.95359375 4.125 0.9296875 C10.15558862 0.81497522 15.22443873 1.25643433 21 3 C21 3.33 21 3.66 21 4 C19.83428467 3.98952637 18.66856934 3.97905273 17.4675293 3.96826172 C13.14578315 3.93208278 8.82405041 3.90910719 4.50219727 3.89013672 C2.63108062 3.88007433 0.75997972 3.86642309 -1.11108398 3.84912109 C-3.79935591 3.82488316 -6.48742006 3.81351937 -9.17578125 3.8046875 C-10.43217155 3.78920364 -10.43217155 3.78920364 -11.71394348 3.77340698 C-16.65099493 3.76695383 -16.65099493 3.76695383 -21 6 C-21.78988145 7.95385067 -21.78988145 7.95385067 -22.1875 10.125 C-22.455625 11.40375 -22.72375 12.6825 -23 14 C-23.33 14 -23.66 14 -24 14 C-24.60822898 6.82289803 -24.60822898 6.82289803 -21.875 3.125 C-14.9659732 -1.98167198 -8.13973183 -1.67582714 0 0 Z " fill="#149A55" transform="translate(368,393)"/>
<path d="M0 0 C0 3 0 3 -1 5 C-1.66 5 -2.32 5 -3 5 C-3.23460937 5.56074219 -3.46921875 6.12148438 -3.7109375 6.69921875 C-7.58931512 13.62153517 -14.93894634 19.08630397 -20.92578125 24.2109375 C-24.20748764 27.04148652 -27.39959655 29.97087699 -30.60546875 32.88671875 C-31.39566406 33.58410156 -32.18585937 34.28148437 -33 35 C-33.86238281 35.76957031 -34.72476563 36.53914062 -35.61328125 37.33203125 C-36.79470703 38.15767578 -36.79470703 38.15767578 -38 39 C-38.99 38.67 -39.98 38.34 -41 38 C-36.16139325 33.56023719 -31.31307809 29.21627696 -26.125 25.1875 C-16.705167 17.60801064 -8.45557044 8.61710228 0 0 Z " fill="#15904C" transform="translate(710,678)"/>
<path d="M0 0 C0.57032959 0.21624023 1.14065918 0.43248047 1.72827148 0.65527344 C-8.33337461 6.33300632 -18.45520344 11.90147382 -28.64672852 17.34277344 C-30.13474976 18.15439941 -30.13474976 18.15439941 -31.65283203 18.98242188 C-33.05359985 19.72347168 -33.05359985 19.72347168 -34.48266602 20.47949219 C-35.7247583 21.14597778 -35.7247583 21.14597778 -36.99194336 21.82592773 C-39.57732346 22.7664435 -40.73297521 22.60466367 -43.27172852 21.65527344 C-40.32055433 19.68782398 -37.38662388 18.17291922 -34.20532227 16.60839844 C-32.98456032 16.00435063 -31.76385924 15.4001798 -30.54321289 14.79589844 C-28.63769363 13.85543012 -26.73156756 12.91624477 -24.82421875 11.97949219 C-22.97020188 11.06787934 -21.11840225 10.15196682 -19.26782227 9.23339844 C-18.66594086 8.93558472 -18.06405945 8.637771 -17.44393921 8.33093262 C-12.8802501 6.04047115 -8.58313177 3.45428726 -4.34228516 0.61523438 C-2.27172852 -0.34472656 -2.27172852 -0.34472656 0 0 Z " fill="#139650" transform="translate(584.271728515625,714.3447265625)"/>
<path d="M0 0 C3.5791777 0.51324058 7.15155791 1.06340605 10.72167969 1.63623047 C12.35706981 1.89734612 13.99323671 2.15361422 15.62988281 2.40673828 C18.50648276 2.85723598 21.37810923 3.33296709 24.25 3.8125 C25.63276123 4.02374512 25.63276123 4.02374512 27.04345703 4.23925781 C33.38067971 5.32823706 38.73528537 7.22045863 44 11 C44.495 11.99 44.495 11.99 45 13 C41.90252459 12.30369252 39.07333977 11.26741453 36.125 10.09765625 C28.39859897 7.25291252 20.42307902 6.14961102 12.32421875 4.84570312 C11.16535156 4.64783203 10.00648438 4.44996094 8.8125 4.24609375 C7.76707031 4.07779053 6.72164063 3.9094873 5.64453125 3.73608398 C2.86745951 2.96310842 1.77504874 2.22071712 0 0 Z " fill="#139751" transform="translate(438,522)"/>
<path d="M0 0 C-3.40329054 2.21960389 -6.302264 3.51805325 -10.2734375 4.3515625 C-11.2634375 4.56296875 -12.2534375 4.774375 -13.2734375 4.9921875 C-14.80871094 5.30542969 -14.80871094 5.30542969 -16.375 5.625 C-17.89867187 5.94984375 -17.89867187 5.94984375 -19.453125 6.28125 C-27.40287798 7.95379543 -34.86343504 9.14274675 -43 9 C-40.16148286 7.10765524 -38.93285078 6.63145152 -35.7109375 6.0703125 C-34.85927002 5.91651123 -34.00760254 5.76270996 -33.13012695 5.60424805 C-31.76633911 5.36702026 -31.76633911 5.36702026 -30.375 5.125 C-22.56136557 3.71571777 -14.84486495 2.11411618 -7.15576172 0.13134766 C-2.20890376 -1.10445188 -2.20890376 -1.10445188 0 0 Z " fill="#11934D" transform="translate(586,510)"/>
<path d="M0 0 C14.66979899 1.88240783 27.81656135 12.96287785 39 22 C38.505 23.485 38.505 23.485 38 25 C37.24460937 24.34515625 36.48921875 23.6903125 35.7109375 23.015625 C25.95316216 14.83720405 15.32386036 8.95769817 4.02441406 3.15405273 C2 2 2 2 0 0 Z " fill="#12954F" transform="translate(420,406)"/>
<path d="M0 0 C7.20827872 5.92108609 9.87769959 16.77157437 10.83984375 25.67578125 C11.16768108 30.43342049 11.43147874 35.24642061 11 40 C10.34 40.66 9.68 41.32 9 42 C8.93006836 41.29504395 8.86013672 40.59008789 8.78808594 39.86376953 C8.45716796 36.61577234 8.10373269 33.37058859 7.75 30.125 C7.64042969 29.01640625 7.53085937 27.9078125 7.41796875 26.765625 C6.52674679 18.79153376 4.68714905 11.98625794 0.87402344 4.91064453 C0 3 0 3 0 0 Z " fill="#129650" transform="translate(484,536)"/>
<path d="M0 0 C1.32103136 3.96309409 0.31665933 6.93676768 -0.625 10.875 C-0.80450195 11.65278809 -0.98400391 12.43057617 -1.16894531 13.23193359 C-1.77011802 15.82353078 -2.38417259 18.41184789 -3 21 C-3.46098733 22.95311324 -3.92192385 24.90623847 -4.3828125 26.859375 C-5.5780351 31.9087881 -6.78495712 36.95532197 -8 42 C-8.33 42 -8.66 42 -9 42 C-9.43121709 34.35308364 -7.82254094 27.31965451 -6.1875 19.875 C-5.92646484 18.62589844 -5.66542969 17.37679688 -5.39648438 16.08984375 C-5.13544922 14.88199219 -4.87441406 13.67414063 -4.60546875 12.4296875 C-4.36981201 11.33897949 -4.13415527 10.24827148 -3.89135742 9.12451172 C-2.95067718 5.82710671 -1.62323415 3.01316201 0 0 Z " fill="#12964F" transform="translate(525,458)"/>
<path d="M0 0 C-3.34339289 1.91152537 -6.49177461 2.61029194 -10.26953125 3.2890625 C-11.48833984 3.50820312 -12.70714844 3.72734375 -13.96289062 3.953125 C-15.23326172 4.17484375 -16.50363281 4.3965625 -17.8125 4.625 C-19.07126953 4.85445312 -20.33003906 5.08390625 -21.62695312 5.3203125 C-27.51693755 6.36355697 -33.0010174 7.12445431 -39 7 C-34.41612301 3.94408201 -29.35322193 3.4370002 -24 2.375 C-22.36998047 2.03082031 -22.36998047 2.03082031 -20.70703125 1.6796875 C-13.71348293 0.27596454 -7.12809555 -0.30533676 0 0 Z " fill="#14944F" transform="translate(494,235)"/>
<path d="M0 0 C6.29424451 0.98685504 11.5490379 4.03749462 17.1875 6.875 C18.29287109 7.41769531 19.39824219 7.96039062 20.53710938 8.51953125 C21.59091797 9.04675781 22.64472656 9.57398438 23.73046875 10.1171875 C24.69364014 10.59784668 25.65681152 11.07850586 26.64916992 11.57373047 C29 13 29 13 31 16 C24.93959545 14.26845584 19.43600656 11.86908461 13.8125 9.0625 C13.13574219 8.72669922 12.45898438 8.39089844 11.76171875 8.04492188 C7.63308454 5.95227101 3.75907511 3.70676793 0 1 C0 0.67 0 0.34 0 0 Z " fill="#139852" transform="translate(457,725)"/>
<path d="M0 0 C0.33 0 0.66 0 1 0 C2.27661138 13.94559173 2.12656309 26.51211711 -2 40 C-2.66 40.66 -3.32 41.32 -4 42 C-4.1528849 36.87503231 -3.58239666 32.18647174 -2.5625 27.1875 C-0.82803773 18.15354769 -0.31134765 9.17938748 0 0 Z " fill="#1B9E5A" transform="translate(725,524)"/>
<path d="M0 0 C3.49928164 2.33285443 3.6329098 3.20795069 4.6875 7.125 C4.93886719 8.03507812 5.19023437 8.94515625 5.44921875 9.8828125 C5.72185547 10.93082031 5.72185547 10.93082031 6 12 C7.32 12 8.64 12 10 12 C11.32 8.7 12.64 5.4 14 2 C14.33 2 14.66 2 15 2 C14.53328373 7.41390868 13.75702189 11.20517932 11 16 C6.47774504 16.36666932 6.47774504 16.36666932 4.4375 14.80078125 C2.68727085 12.60823876 2.0704518 10.69493975 1.3125 8 C1.06113281 7.13375 0.80976563 6.2675 0.55078125 5.375 C0 3 0 3 0 0 Z " fill="#10964F" transform="translate(501,499)"/>
<path d="M0 0 C10.59593395 -0.87489363 20.72661824 1.72943921 31 4 C31.33 4.99 31.66 5.98 32 7 C27.92330865 6.33381176 23.84831829 5.65811954 19.7746582 4.97363281 C18.38902412 4.74218054 17.00295508 4.51331661 15.61645508 4.28710938 C13.62208059 3.96126388 11.62936901 3.62529133 9.63671875 3.2890625 C8.43748779 3.09006348 7.23825684 2.89106445 6.00268555 2.68603516 C3 2 3 2 0 0 Z " fill="#13924F" transform="translate(740,272)"/>
<path d="M0 0 C0.33 0 0.66 0 1 0 C2.19388403 31.526794 2.19388403 31.526794 2 44 C-2.84239865 35.25188455 -0.96540823 24.02872703 -0.5625 14.375 C-0.50913888 12.97528417 -0.45640008 11.57554447 -0.40429688 10.17578125 C-0.27562678 6.78356959 -0.14071053 3.39172994 0 0 Z " fill="#139753" transform="translate(296,504)"/>
<path d="M0 0 C-3.02064161 2.01376107 -3.83128025 2.24026617 -7.25 2.4375 C-11.7344139 2.84783853 -15.00651851 3.92006172 -19 6 C-19.33 6.66 -19.66 7.32 -20 8 C-20.66 8 -21.32 8 -22 8 C-22.33 9.65 -22.66 11.3 -23 13 C-23.33 13 -23.66 13 -24 13 C-24.36901725 9.77109907 -24.13105532 8.22934682 -22.5 5.375 C-15.97262244 -0.82600868 -8.49353798 -0.38220921 0 0 Z " fill="#148F4D" transform="translate(269,275)"/>
<path d="M0 0 C3.06916738 3.61354569 4.73182123 7.61867288 6.5625 11.9375 C6.86607422 12.64068359 7.16964844 13.34386719 7.48242188 14.06835938 C9.04118835 17.69189714 10.55598577 21.32889915 12 25 C9 24 9 24 7.83325195 22.22167969 C7.29124146 21.08327637 7.29124146 21.08327637 6.73828125 19.921875 C6.34189453 19.09042969 5.94550781 18.25898437 5.53710938 17.40234375 C5.13298828 16.52707031 4.72886719 15.65179687 4.3125 14.75 C3.89677734 13.89019531 3.48105469 13.03039062 3.05273438 12.14453125 C1.03654027 7.84728995 -0.25382657 4.82110853 0 0 Z " fill="#15914D" transform="translate(259,594)"/>
<path d="M0 0 C1.71700545 2.57550818 2.56997075 4.35577992 3.5078125 7.23046875 C3.90419922 8.43413086 3.90419922 8.43413086 4.30859375 9.66210938 C4.57800781 10.49548828 4.84742188 11.32886719 5.125 12.1875 C5.40214844 13.03248047 5.67929687 13.87746094 5.96484375 14.74804688 C6.64730716 16.83073693 7.32552526 18.91471191 8 21 C7.01 20.67 6.02 20.34 5 20 C4.29508733 17.67793475 3.62787571 15.34406932 3 13 C2.34 12.67 1.68 12.34 1 12 C0.5859375 9.27734375 0.5859375 9.27734375 0.375 5.9375 C0.30023438 4.83277344 0.22546875 3.72804688 0.1484375 2.58984375 C0.09945312 1.73519531 0.05046875 0.88054688 0 0 Z " fill="#148C4A" transform="translate(251,571)"/>
<path d="M0 0 C3.25 0.125 3.25 0.125 7 1 C11.31090481 5.85735754 11.52112999 9.72243493 11.25 15.875 C11.23195313 16.65875 11.21390625 17.4425 11.1953125 18.25 C11.14855148 20.16720189 11.07682003 22.08376715 11 24 C10.67 24 10.34 24 10 24 C9.96261719 22.87980469 9.92523437 21.75960938 9.88671875 20.60546875 C9.82105743 19.1327791 9.75461014 17.66012434 9.6875 16.1875 C9.66494141 15.44951172 9.64238281 14.71152344 9.61914062 13.95117188 C9.42453414 9.730986 9.42453414 9.730986 7.64453125 5.98828125 C5.89120677 4.74245278 5.89120677 4.74245278 3 5 C3 3.68 3 2.36 3 1 C2.01 0.67 1.02 0.34 0 0 Z " fill="#0E9049" transform="translate(717,320)"/>
<path d="M0 0 C7.09083056 -0.242652 14.19345895 -0.26884702 21 2 C21.33 2.66 21.66 3.32 22 4 C14.46783285 3.55761615 7.3197277 2.86094772 0 1 C0 0.67 0 0.34 0 0 Z " fill="#11924F" transform="translate(677,261)"/>
<path d="M0 0 C7.24997422 -0.28307925 13.90961228 0.49025965 21 2 C21 2.66 21 3.32 21 4 C15.93683317 4.15639125 11.49601562 3.62766071 6.5625 2.5 C5.32628906 2.2215625 4.09007812 1.943125 2.81640625 1.65625 C1.88699219 1.4396875 0.95757813 1.223125 0 1 C0 0.67 0 0.34 0 0 Z " fill="#11944F" transform="translate(621,251)"/>
<path d="M0 0 C3.63 0.33 7.26 0.66 11 1 C11 1.99 11 2.98 11 4 C0.44191344 4.18451025 0.44191344 4.18451025 -4 3 C-2.68 2.67 -1.36 2.34 0 2 C0 1.34 0 0.68 0 0 Z " fill="#13A45D" transform="translate(629,302)"/>
<path d="M0 0 C0 0.99 0 1.98 0 3 C-2.0762657 4.03513247 -4.16131479 5.05266211 -6.25 6.0625 C-7.41015625 6.63097656 -8.5703125 7.19945312 -9.765625 7.78515625 C-13 9 -13 9 -17 8 C-11.39 5.36 -5.78 2.72 0 0 Z " fill="#138E4B" transform="translate(536,796)"/>
<path d="M0 0 C2.87770097 2.45596893 3.96687126 4.90889595 5.25 8.4375 C5.60578125 9.38496094 5.9615625 10.33242188 6.328125 11.30859375 C7.01466386 14.05874071 6.96622898 15.38003295 6 18 C5.17934931 16.12855305 4.3688416 14.25265664 3.5625 12.375 C2.88380859 10.80878906 2.88380859 10.80878906 2.19140625 9.2109375 C1.04198295 6.11314749 0.42688777 3.26789946 0 0 Z " fill="#118E48" transform="translate(301,563)"/>
<path d="M0 0 C0 0.33 0 0.66 0 1 C-6.74153283 2.25841946 -13.13484138 3.26404456 -20 3 C-13.94869261 -1.03420492 -6.98194609 -1.51781437 0 0 Z " fill="#139D57" transform="translate(563,516)"/>
<path d="M0 0 C-4.29 2.97 -8.58 5.94 -13 9 C-13.66 8.67 -14.32 8.34 -15 8 C-11.29230481 3.82884292 -5.73708737 -1.91236246 0 0 Z " fill="#108F4A" transform="translate(616,696)"/>
<path d="M0 0 C-0.33 0.66 -0.66 1.32 -1 2 C-3.54941373 2.31241371 -6.00361513 2.51303421 -8.5625 2.625 C-9.62887695 2.68300781 -9.62887695 2.68300781 -10.71679688 2.7421875 C-12.47742425 2.83671783 -14.23867728 2.91945817 -16 3 C-16 2.34 -16 1.68 -16 1 C-10.63904667 -0.12862175 -5.44693314 -0.09688221 0 0 Z " fill="#11934F" transform="translate(431,246)"/>
<path d="M0 0 C0.99 0.33 1.98 0.66 3 1 C1.56877218 2.48523642 0.12979111 3.96300462 -1.3125 5.4375 C-2.11300781 6.26121094 -2.91351562 7.08492188 -3.73828125 7.93359375 C-6 10 -6 10 -9 11 C-7.59155282 7.78475695 -5.89655214 5.67816132 -3.375 3.25 C-2.74335937 2.63640625 -2.11171875 2.0228125 -1.4609375 1.390625 C-0.73777344 0.70226562 -0.73777344 0.70226562 0 0 Z " fill="#149853" transform="translate(638,475)"/>
<path d="M0 0 C0.6875 1.6875 0.6875 1.6875 1 4 C-0.3125 6.4375 -0.3125 6.4375 -2 9 C-2.69822617 10.65369357 -3.37498605 12.31727014 -4 14 C-4.33 14 -4.66 14 -5 14 C-4.09068323 5.05838509 -4.09068323 5.05838509 -2 1 C-1.34 0.67 -0.68 0.34 0 0 Z " fill="#10934D" transform="translate(531,443)"/>
<path d="M0 0 C-2.80452702 1.51699416 -5.3857302 2.45308563 -8.5 3.125 C-9.2528125 3.29257812 -10.005625 3.46015625 -10.78125 3.6328125 C-13 4 -13 4 -17 4 C-17 3.34 -17 2.68 -17 2 C-11.21642935 -0.01167675 -6.09781001 -0.22084624 0 0 Z " fill="#119650" transform="translate(627,376)"/>
<path d="M0 0 C0 0.66 0 1.32 0 2 C-1.58086048 2.36504603 -3.16483907 2.71660506 -4.75 3.0625 C-5.63171875 3.25972656 -6.5134375 3.45695312 -7.421875 3.66015625 C-9.98679028 3.99825872 -11.57091639 3.81158635 -14 3 C-14 2.34 -14 1.68 -14 1 C-9.27616037 0.34843591 -4.78025483 -0.11950637 0 0 Z " fill="#19A25D" transform="translate(398,303)"/>
<path d="M0 0 C1.7290774 -0.02725341 3.45828176 -0.04650987 5.1875 -0.0625 C6.15042969 -0.07410156 7.11335937 -0.08570313 8.10546875 -0.09765625 C10.85576513 -0.00486622 13.32479591 0.37888315 16 1 C16 1.66 16 2.32 16 3 C13.89521396 2.88590318 11.79115423 2.75834639 9.6875 2.625 C8.51574219 2.55539062 7.34398437 2.48578125 6.13671875 2.4140625 C3 2 3 2 0 0 Z " fill="#11934E" transform="translate(643,255)"/>
<path d="M0 0 C1.7290774 -0.02725341 3.45828176 -0.04650987 5.1875 -0.0625 C6.15042969 -0.07410156 7.11335937 -0.08570313 8.10546875 -0.09765625 C10.85576513 -0.00486622 13.32479591 0.37888315 16 1 C16 1.66 16 2.32 16 3 C13.89521396 2.88590318 11.79115423 2.75834639 9.6875 2.625 C8.51574219 2.55539063 7.34398437 2.48578125 6.13671875 2.4140625 C3 2 3 2 0 0 Z " fill="#0F934E" transform="translate(604,248)"/>
<path d="M0 0 C-2 2 -2 2 -4.49609375 2.046875 C-5.95208984 1.89992188 -5.95208984 1.89992188 -7.4375 1.75 C-8.40558594 1.66234375 -9.37367188 1.5746875 -10.37109375 1.484375 C-13 1 -13 1 -16 -1 C-9.93179132 -2.08360869 -5.89893243 -1.79074734 0 0 Z " fill="#129450" transform="translate(716,266)"/>
<path d="M0 0 C5.70629354 0.42797202 9.41078616 2.84345952 14 6 C13.01 6.495 13.01 6.495 12 7 C9.1796875 5.78515625 9.1796875 5.78515625 5.875 4.0625 C4.77929688 3.49660156 3.68359375 2.93070313 2.5546875 2.34765625 C1.71164062 1.90292969 0.86859375 1.45820312 0 1 C0 0.67 0 0.34 0 0 Z " fill="#0E914B" transform="translate(474,734)"/>
<path d="M0 0 C10.55808656 -0.18451025 10.55808656 -0.18451025 15 1 C15 1.66 15 2.32 15 3 C13.06183265 2.8858134 11.12444901 2.75826577 9.1875 2.625 C8.10855469 2.55539063 7.02960937 2.48578125 5.91796875 2.4140625 C3 2 3 2 0 0 Z " fill="#12924E" transform="translate(537,236)"/>
<path d="M0 0 C1.305239 3.91571701 0.32239848 5.03892997 -1.4375 8.6875 C-1.91058594 9.68136719 -2.38367188 10.67523437 -2.87109375 11.69921875 C-3.42990234 12.83810547 -3.42990234 12.83810547 -4 14 C-4.33 14 -4.66 14 -5 14 C-4.49580302 8.95803017 -3.75495562 3.75495562 0 0 Z " fill="#10924B" transform="translate(718,573)"/>
<path d="M0 0 C0.33 0 0.66 0 1 0 C1.19392201 5.52677733 0.7479503 9.75614911 -1 15 C-1.66 15 -2.32 15 -3 15 C-2.44854729 9.76119922 -1.57077907 5.02649303 0 0 Z " fill="#11904B" transform="translate(774,560)"/>
<path d="M0 0 C1.79570284 2.66125745 2.03345719 3.78111062 1.5390625 7.015625 C1.08660156 8.61664062 1.08660156 8.61664062 0.625 10.25 C0.32851563 11.32765625 0.03203125 12.4053125 -0.2734375 13.515625 C-0.51320313 14.33546875 -0.75296875 15.1553125 -1 16 C-1.33 16 -1.66 16 -2 16 C-2.2396943 10.36718401 -1.38529821 5.45461169 0 0 Z " fill="#159650" transform="translate(723,550)"/>
<path d="M0 0 C0 0.66 0 1.32 0 2 C-4.67201205 3.20568053 -9.21496292 3.09382426 -14 3 C-10.28767995 -0.71232005 -5.00320561 -0.11912394 0 0 Z " fill="#0F924D" transform="translate(472,289)"/>
<path d="M0 0 C1.72880982 -0.05449838 3.45812712 -0.09301688 5.1875 -0.125 C6.15042969 -0.14820313 7.11335937 -0.17140625 8.10546875 -0.1953125 C11.12812778 0.0086456 13.26769985 0.73125368 16 2 C16 2.33 16 2.66 16 3 C10.21101581 3.20674944 5.57067277 2.59162079 0 1 C0 0.67 0 0.34 0 0 Z " fill="#108F4B" transform="translate(717,268)"/>
<path d="M0 0 C0 0.99 0 1.98 0 3 C-4.22949995 5.41685712 -7.12335991 6.34833144 -12 6 C-8.37464179 2.82781157 -4.48849722 1.57097403 0 0 Z " fill="#12934D" transform="translate(599,503)"/>
<path d="M0 0 C5.4185766 -0.22577402 9.77487721 0.53329887 15 2 C15 2.33 15 2.66 15 3 C4.44191344 3.3690205 4.44191344 3.3690205 0 1 C0 0.67 0 0.34 0 0 Z " fill="#0D8C48" transform="translate(520,283)"/>
<path d="M0 0 C1.72880982 -0.05449838 3.45812712 -0.09301688 5.1875 -0.125 C6.15042969 -0.14820313 7.11335937 -0.17140625 8.10546875 -0.1953125 C11.12812778 0.0086456 13.26769985 0.73125368 16 2 C16 2.33 16 2.66 16 3 C13.89521396 2.88590318 11.79115423 2.75834639 9.6875 2.625 C8.51574219 2.55539063 7.34398437 2.48578125 6.13671875 2.4140625 C3 2 3 2 0 0 Z " fill="#0C8C47" transform="translate(570,242)"/>
<path d="M0 0 C0.90105469 0.00902344 1.80210937 0.01804688 2.73046875 0.02734375 C3.41753906 0.03894531 4.10460937 0.05054688 4.8125 0.0625 C-0.58115686 2.8558465 -5.11402016 3.18158784 -11.1875 3.0625 C-7.23784431 0.4293962 -4.63874115 -0.06024339 0 0 Z " fill="#0C8843" transform="translate(466.1875,238.9375)"/>
<path d="M0 0 C0.66 0 1.32 0 2 0 C3.10228696 4.40914783 3.07654536 8.48382401 3 13 C0.41073669 10.41073669 0.62601957 8.97294721 0.375 5.375 C0.30023438 4.37210938 0.22546875 3.36921875 0.1484375 2.3359375 C0.09945313 1.56507813 0.05046875 0.79421875 0 0 Z " fill="#13924B" transform="translate(298,549)"/>
<path d="M0 0 C4.83256305 0.41421969 6.82679218 2.46413986 10 6 C9.67 6.99 9.34 7.98 9 9 C6 6 3 3 0 0 Z " fill="#149955" transform="translate(380,490)"/>
<path d="M0 0 C0.33 0 0.66 0 1 0 C0.88570603 1.77155654 0.75816963 3.54226229 0.625 5.3125 C0.52058594 6.79169922 0.52058594 6.79169922 0.4140625 8.30078125 C0 11 0 11 -2 14 C-2.05437607 12.41705218 -2.09296271 10.83355744 -2.125 9.25 C-2.14820313 8.36828125 -2.17140625 7.4865625 -2.1953125 6.578125 C-1.99139502 3.8864142 -1.36551721 2.30095026 0 0 Z " fill="#0C8A44" transform="translate(521,473)"/>
<path d="M0 0 C1.58409994 0.11487748 3.16728963 0.24234508 4.75 0.375 C6.07257812 0.47941406 6.07257812 0.47941406 7.421875 0.5859375 C9.99066382 0.99850055 11.75841015 1.71160957 14 3 C12.41676312 3.027193 10.83338938 3.04648306 9.25 3.0625 C7.92742188 3.07990234 7.92742188 3.07990234 6.578125 3.09765625 C4.2181162 3.00826198 2.25501476 2.66912821 0 2 C0 1.34 0 0.68 0 0 Z " fill="#10934D" transform="translate(695,316)"/>
<path d="M0 0 C1.75070517 0.11470137 3.50057536 0.24219028 5.25 0.375 C6.22453125 0.44460938 7.1990625 0.51421875 8.203125 0.5859375 C10.89633189 0.98465249 12.66963279 1.63507063 15 3 C4.44191344 3.3690205 4.44191344 3.3690205 0 1 C0 0.67 0 0.34 0 0 Z " fill="#0D8B45" transform="translate(679,313)"/>
<path d="M0 0 C1.58409994 0.11487748 3.16728963 0.24234508 4.75 0.375 C6.07257812 0.47941406 6.07257812 0.47941406 7.421875 0.5859375 C9.99066382 0.99850055 11.75841015 1.71160957 14 3 C12.41676312 3.027193 10.83338938 3.04648306 9.25 3.0625 C7.92742188 3.07990234 7.92742188 3.07990234 6.578125 3.09765625 C4.2181162 3.00826198 2.25501476 2.66912821 0 2 C0 1.34 0 0.68 0 0 Z " fill="#0F914C" transform="translate(568,292)"/>
<path d="M0 0 C1.72945653 0.14235457 3.45855654 0.28904382 5.1875 0.4375 C6.63189453 0.55931641 6.63189453 0.55931641 8.10546875 0.68359375 C10.78649602 0.97666151 13.3662986 1.42703754 16 2 C16 2.33 16 2.66 16 3 C14.27119018 3.05449838 12.54187288 3.09301688 10.8125 3.125 C9.84957031 3.14820313 8.88664062 3.17140625 7.89453125 3.1953125 C4.87187222 2.9913544 2.73230015 2.26874632 0 1 C0 0.67 0 0.34 0 0 Z " fill="#0B8B45" transform="translate(451,525)"/>
<path d="M0 0 C0 0.66 0 1.32 0 2 C-4.40914783 3.10228696 -8.48382401 3.07654536 -13 3 C-8.54370064 0.02913376 -5.32064558 -0.12092376 0 0 Z " fill="#0F944F" transform="translate(493,285)"/>
<path d="M0 0 C3 1 3 1 3.94921875 2.84765625 C4.19285156 3.57855469 4.43648438 4.30945313 4.6875 5.0625 C4.93886719 5.79597656 5.19023437 6.52945312 5.44921875 7.28515625 C5.63097656 7.85105469 5.81273437 8.41695313 6 9 C5.34 9.66 4.68 10.32 4 11 C3.32880451 9.5437455 2.66318193 8.08492133 2 6.625 C1.62875 5.81289063 1.2575 5.00078125 0.875 4.1640625 C0 2 0 2 0 0 Z " fill="#159853" transform="translate(352,445)"/>
<path d="M0 0 C4.83256305 0.41421969 6.82679218 2.46413986 10 6 C6.51329166 4.8905928 3.22515763 3.73662334 0 2 C0 1.34 0 0.68 0 0 Z " fill="#0E924B" transform="translate(446,719)"/>
<path d="M0 0 C3.94876098 0.56410871 6.75634176 1.65735794 10 4 C10.33 4.99 10.66 5.98 11 7 C6.89188572 5.55007731 3.53144334 3.54592427 0 1 C0 0.67 0 0.34 0 0 Z " fill="#10924B" transform="translate(422,705)"/>
<path d="M0 0 C1.258125 0.12375 2.51625 0.2475 3.8125 0.375 C4.87404297 0.47941406 4.87404297 0.47941406 5.95703125 0.5859375 C8 1 8 1 11 3 C10.67 3.66 10.34 4.32 10 5 C5.05 3.02 5.05 3.02 0 1 C0 0.67 0 0.34 0 0 Z " fill="#10964F" transform="translate(407,401)"/>
<path d="M0 0 C2.37948772 0.17625835 3.70225849 0.69719773 5.37890625 2.40234375 C6.62115486 3.90649092 7.81376056 5.45129851 9 7 C6.62051228 6.82374165 5.29774151 6.30280227 3.62109375 4.59765625 C2.37884514 3.09350908 1.18623944 1.54870149 0 0 Z " fill="#139952" transform="translate(460,432)"/>
<path d="M0 0 C2.4932534 0.99730136 3.77467439 1.65074531 5.25 3.9375 C6 6 6 6 6 9 C5.34 9 4.68 9 4 9 C0 2.25 0 2.25 0 0 Z " fill="#158E4C" transform="translate(773,279)"/>
<path d="M0 0 C4.7517398 0.43197635 6.92000054 1.32769295 10 5 C5.75354935 5 3.61475228 3.18249194 0 1 C0 0.67 0 0.34 0 0 Z " fill="#10924C" transform="translate(435,713)"/>
<path d="M0 0 C1 3 1 3 0.22265625 4.82421875 C-0.8515625 6.54947917 -1.92578125 8.27473958 -3 10 C-3.66 10 -4.32 10 -5 10 C-3.66511872 6.40608886 -2.03977277 3.24509304 0 0 Z " fill="#138F4A" transform="translate(751,621)"/>
<path d="M0 0 C2.56616632 3.84924948 2.55097676 6.4349304 3 11 C2.34 11 1.68 11 1 11 C-0.17571451 7.32589215 -0.07366746 3.83070817 0 0 Z " fill="#0F8746" transform="translate(248,559)"/>
<path d="M0 0 C0.33 0 0.66 0 1 0 C1 3.3 1 6.6 1 10 C0.34 10 -0.32 10 -1 10 C-1.33 7.36 -1.66 4.72 -2 2 C-1.34 2 -0.68 2 0 2 C0 1.34 0 0.68 0 0 Z " fill="#0D934D" transform="translate(776,549)"/>
<path d="M0 0 C-3.20336822 2.83374881 -5.78087253 3.5205537 -10 4 C-6.66064924 0.50886057 -4.84725717 -0.1275594 0 0 Z " fill="#168F4C" transform="translate(549,792)"/>
<path d="M0 0 C0 3 0 3 -1.3125 4.38671875 C-2.875 5.59114583 -4.4375 6.79557292 -6 8 C-5.65120368 4.74456771 -4.97866739 3.98126893 -2.4375 1.75 C-1.633125 1.1725 -0.82875 0.595 0 0 Z " fill="#0F8E45" transform="translate(673,645)"/>
<path d="M0 0 C3.93673644 1.31224548 6.22719294 2.91910327 9 6 C4.70042176 5.52226908 2.78280018 4.29813355 0 1 C0 0.67 0 0.34 0 0 Z " fill="#0F8B45" transform="translate(391,744)"/>
<path d="M0 0 C4.31392226 0.4793247 6.16569547 1.7457985 9 5 C4.98525763 5 3.18024863 3.33218233 0 1 C0 0.67 0 0.34 0 0 Z " fill="#149753" transform="translate(383,740)"/>
<path d="M0 0 C1.25541557 3.76624671 0.37061958 5.37188934 -1 9 C-1.66 9 -2.32 9 -3 9 C-2.5020163 5.26512223 -2.12508244 3.18762365 0 0 Z " fill="#12974E" transform="translate(531,527)"/>
<path d="M0 0 C2.64752004 2.57784846 4.94432065 4.91648098 7 8 C4.24542282 7.62005832 3.17979426 7.1926367 1.25 5.125 C0 3 0 3 0 0 Z " fill="#138C49" transform="translate(308,672)"/>
<path d="M0 0 C0.99 0 1.98 0 3 0 C4.0625 1.75 4.0625 1.75 5 4 C4.67 5.32 4.34 6.64 4 8 C2.68 5.36 1.36 2.72 0 0 Z " fill="#12914A" transform="translate(310,588)"/>
<path d="M0 0 C1.32 0.33 2.64 0.66 4 1 C2.68 1.33 1.36 1.66 0 2 C0 1.34 0 0.68 0 0 Z " fill="#21B16F" transform="translate(348,392)"/>
<path d="M0 0 C1.65 0 3.3 0 5 0 C5 0.33 5 0.66 5 1 C3.35 1 1.7 1 0 1 C0 0.67 0 0.34 0 0 Z " fill="#24AE6D" transform="translate(310,264)"/>
<path d="M0 0 C1 4 1 4 1 4 Z " fill="#20B36E" transform="translate(491,668)"/>
<path d="M0 0 C1 4 1 4 1 4 Z " fill="#1FB16C" transform="translate(491,652)"/>
<path d="M0 0 C1 4 1 4 1 4 Z " fill="#21B16C" transform="translate(491,620)"/>
<path d="M0 0 C4 1 4 1 4 1 Z " fill="#23AE6F" transform="translate(400,248)"/>
<path d="" fill="#1EB36D" transform="translate(0,0)"/>
<path d="" fill="#1FB36F" transform="translate(0,0)"/>
<path d="" fill="#21B06E" transform="translate(0,0)"/>
<path d="M0 0 C3 1 3 1 3 1 Z " fill="#1EAE6C" transform="translate(413,400)"/>
<path d="M0 0 C0.33 0.66 0.66 1.32 1 2 C0.34 1.67 -0.32 1.34 -1 1 C-0.67 0.67 -0.34 0.34 0 0 Z " fill="#25AF6D" transform="translate(308,264)"/>
<path d="M0 0 C3 1 3 1 3 1 Z " fill="#23AD6C" transform="translate(304,264)"/>
<path d="M0 0 C3 1 3 1 3 1 Z " fill="#21AD6A" transform="translate(444,240)"/>
<path d="M0 0 C3 1 3 1 3 1 Z " fill="#20AA6A" transform="translate(533,232)"/>
<path d="M0 0 C3 1 3 1 3 1 Z " fill="#20AA69" transform="translate(491,232)"/>
<path d="M0 0 C2 1 2 1 2 1 Z " fill="#22A967" transform="translate(481,797)"/>
<path d="" fill="#1EB46E" transform="translate(0,0)"/>
<path d="" fill="#20B36E" transform="translate(0,0)"/>
<path d="M0 0 C2 1 2 1 2 1 Z " fill="#26AB6A" transform="translate(267,622)"/>
<path d="" fill="#26AA6B" transform="translate(0,0)"/>
<path d="" fill="#26AD6D" transform="translate(0,0)"/>
<path d="" fill="#26AB6E" transform="translate(0,0)"/>
<path d="" fill="#24AE6D" transform="translate(0,0)"/>
<path d="M0 0 C2 1 2 1 2 1 Z " fill="#21B16D" transform="translate(372,392)"/>
<path d="M0 0 C2 1 2 1 2 1 Z " fill="#23B672" transform="translate(331,318)"/>
<path d="M0 0 C2 1 2 1 2 1 Z " fill="#1EB36E" transform="translate(601,301)"/>
<path d="M0 0 C2 1 2 1 2 1 Z " fill="#20B16E" transform="translate(459,294)"/>
<path d="M0 0 C2 1 2 1 2 1 Z " fill="#1FB26E" transform="translate(464,293)"/>
<path d="M0 0 C2 1 2 1 2 1 Z " fill="#20AB6B" transform="translate(757,272)"/>
<path d="M0 0 C2 1 2 1 2 1 Z " fill="#22AF6D" transform="translate(345,258)"/>
<path d="M0 0 C2 1 2 1 2 1 Z " fill="#21AE6C" transform="translate(667,256)"/>
<path d="" fill="#20B06D" transform="translate(0,0)"/>
<path d="M0 0 C2 1 2 1 2 1 Z " fill="#22AF6E" transform="translate(488,232)"/>
<path d="" fill="#4A6044" transform="translate(0,0)"/>
<path d="" fill="#25A868" transform="translate(0,0)"/>
<path d="" fill="#23A869" transform="translate(0,0)"/>
<path d="" fill="#23A867" transform="translate(0,0)"/>
<path d="" fill="#23A969" transform="translate(0,0)"/>
<path d="" fill="#26A967" transform="translate(0,0)"/>
<path d="" fill="#25A767" transform="translate(0,0)"/>
<path d="" fill="#21A864" transform="translate(0,0)"/>
<path d="" fill="#23AA68" transform="translate(0,0)"/>
<path d="" fill="#22A567" transform="translate(0,0)"/>
<path d="" fill="#24AB6A" transform="translate(0,0)"/>
<path d="" fill="#23AA68" transform="translate(0,0)"/>
<path d="" fill="#24A867" transform="translate(0,0)"/>
<path d="" fill="#23A767" transform="translate(0,0)"/>
<path d="" fill="#22A665" transform="translate(0,0)"/>
<path d="" fill="#23A868" transform="translate(0,0)"/>
<path d="" fill="#1EB06F" transform="translate(0,0)"/>
<path d="" fill="#22B771" transform="translate(0,0)"/>
<path d="" fill="#21B56F" transform="translate(0,0)"/>
<path d="" fill="#1CAF6D" transform="translate(0,0)"/>
<path d="" fill="#24AA68" transform="translate(0,0)"/>
<path d="" fill="#23AA68" transform="translate(0,0)"/>
<path d="" fill="#25A869" transform="translate(0,0)"/>
<path d="" fill="#21B570" transform="translate(0,0)"/>
<path d="" fill="#24AC69" transform="translate(0,0)"/>
<path d="" fill="#20B06E" transform="translate(0,0)"/>
<path d="" fill="#1FB571" transform="translate(0,0)"/>
<path d="" fill="#1FB16B" transform="translate(0,0)"/>
<path d="" fill="#20B26E" transform="translate(0,0)"/>
<path d="" fill="#26A769" transform="translate(0,0)"/>
<path d="" fill="#1EB16C" transform="translate(0,0)"/>
<path d="" fill="#1EB56F" transform="translate(0,0)"/>
<path d="" fill="#1EB670" transform="translate(0,0)"/>
<path d="" fill="#1EAF69" transform="translate(0,0)"/>
<path d="" fill="#657058" transform="translate(0,0)"/>
<path d="" fill="#20B06D" transform="translate(0,0)"/>
<path d="" fill="#22AF6D" transform="translate(0,0)"/>
<path d="" fill="#21B46E" transform="translate(0,0)"/>
<path d="" fill="#1EAF6C" transform="translate(0,0)"/>
<path d="" fill="#21B16D" transform="translate(0,0)"/>
<path d="" fill="#20B56E" transform="translate(0,0)"/>
<path d="" fill="#1EAD6C" transform="translate(0,0)"/>
<path d="" fill="#27AD69" transform="translate(0,0)"/>
<path d="" fill="#23A969" transform="translate(0,0)"/>
<path d="" fill="#1FB36F" transform="translate(0,0)"/>
<path d="" fill="#25AC6A" transform="translate(0,0)"/>
<path d="" fill="#20B46F" transform="translate(0,0)"/>
<path d="" fill="#29B06B" transform="translate(0,0)"/>
<path d="" fill="#21B06D" transform="translate(0,0)"/>
<path d="" fill="#28AC6A" transform="translate(0,0)"/>
<path d="" fill="#22B06D" transform="translate(0,0)"/>
<path d="" fill="#27AB6A" transform="translate(0,0)"/>
<path d="" fill="#20B06F" transform="translate(0,0)"/>
<path d="" fill="#27AA6A" transform="translate(0,0)"/>
<path d="" fill="#28AC6B" transform="translate(0,0)"/>
<path d="" fill="#27AA6B" transform="translate(0,0)"/>
<path d="" fill="#28AB69" transform="translate(0,0)"/>
<path d="" fill="#20B26E" transform="translate(0,0)"/>
<path d="" fill="#23A86A" transform="translate(0,0)"/>
<path d="" fill="#24A969" transform="translate(0,0)"/>
<path d="" fill="#28AC6A" transform="translate(0,0)"/>
<path d="" fill="#24AB6C" transform="translate(0,0)"/>
<path d="" fill="#20AE6E" transform="translate(0,0)"/>
<path d="" fill="#21B26C" transform="translate(0,0)"/>
<path d="" fill="#25AE6E" transform="translate(0,0)"/>
<path d="" fill="#22B570" transform="translate(0,0)"/>
<path d="" fill="#22B272" transform="translate(0,0)"/>
<path d="" fill="#22B36F" transform="translate(0,0)"/>
<path d="" fill="#21B36E" transform="translate(0,0)"/>
<path d="" fill="#1EB06B" transform="translate(0,0)"/>
<path d="" fill="#1FB570" transform="translate(0,0)"/>
<path d="" fill="#1FAE6B" transform="translate(0,0)"/>
<path d="" fill="#21B06B" transform="translate(0,0)"/>
<path d="" fill="#1FB16F" transform="translate(0,0)"/>
<path d="" fill="#1FAE6A" transform="translate(0,0)"/>
<path d="" fill="#1EB16D" transform="translate(0,0)"/>
<path d="" fill="#1EAE6D" transform="translate(0,0)"/>
<path d="" fill="#24AE6F" transform="translate(0,0)"/>
<path d="" fill="#24AD6E" transform="translate(0,0)"/>
<path d="" fill="#21B26F" transform="translate(0,0)"/>
<path d="" fill="#1FB26E" transform="translate(0,0)"/>
<path d="" fill="#21AE6D" transform="translate(0,0)"/>
<path d="" fill="#22B570" transform="translate(0,0)"/>
<path d="" fill="#22B76E" transform="translate(0,0)"/>
<path d="" fill="#21B36E" transform="translate(0,0)"/>
<path d="" fill="#1FB06C" transform="translate(0,0)"/>
<path d="" fill="#21B16C" transform="translate(0,0)"/>
<path d="" fill="#21B16D" transform="translate(0,0)"/>
<path d="" fill="#20B36F" transform="translate(0,0)"/>
<path d="" fill="#25AD70" transform="translate(0,0)"/>
<path d="" fill="#21B26F" transform="translate(0,0)"/>
<path d="" fill="#25AF6E" transform="translate(0,0)"/>
<path d="" fill="#21B46F" transform="translate(0,0)"/>
<path d="" fill="#20B16D" transform="translate(0,0)"/>
<path d="" fill="#1FB16E" transform="translate(0,0)"/>
<path d="" fill="#22B36E" transform="translate(0,0)"/>
<path d="" fill="#21B06A" transform="translate(0,0)"/>
<path d="" fill="#21B16F" transform="translate(0,0)"/>
<path d="" fill="#21B26E" transform="translate(0,0)"/>
<path d="" fill="#1FB16B" transform="translate(0,0)"/>
<path d="" fill="#24B671" transform="translate(0,0)"/>
<path d="" fill="#1FAF6A" transform="translate(0,0)"/>
<path d="" fill="#1FB06B" transform="translate(0,0)"/>
<path d="" fill="#20B46F" transform="translate(0,0)"/>
<path d="" fill="#20B16F" transform="translate(0,0)"/>
<path d="" fill="#22B672" transform="translate(0,0)"/>
<path d="" fill="#1FB36F" transform="translate(0,0)"/>
<path d="" fill="#1FB572" transform="translate(0,0)"/>
<path d="" fill="#1EB772" transform="translate(0,0)"/>
<path d="" fill="#20B470" transform="translate(0,0)"/>
<path d="" fill="#21BA71" transform="translate(0,0)"/>
<path d="" fill="#1FB16D" transform="translate(0,0)"/>
<path d="" fill="#1FB36F" transform="translate(0,0)"/>
<path d="" fill="#23B270" transform="translate(0,0)"/>
<path d="" fill="#20B26E" transform="translate(0,0)"/>
<path d="" fill="#2BAB6C" transform="translate(0,0)"/>
<path d="" fill="#21B46F" transform="translate(0,0)"/>
<path d="" fill="#1FB36D" transform="translate(0,0)"/>
<path d="" fill="#2EA369" transform="translate(0,0)"/>
<path d="" fill="#24AA69" transform="translate(0,0)"/>
<path d="" fill="#26AA6A" transform="translate(0,0)"/>
<path d="" fill="#27AC6B" transform="translate(0,0)"/>
<path d="" fill="#25AF6D" transform="translate(0,0)"/>
<path d="" fill="#27B06F" transform="translate(0,0)"/>
<path d="" fill="#29AE6F" transform="translate(0,0)"/>
<path d="" fill="#25AB6C" transform="translate(0,0)"/>
<path d="" fill="#26AF6E" transform="translate(0,0)"/>
<path d="" fill="#26AF6F" transform="translate(0,0)"/>
<path d="" fill="#22AE6C" transform="translate(0,0)"/>
<path d="" fill="#1EA965" transform="translate(0,0)"/>
<path d="" fill="#24B070" transform="translate(0,0)"/>
<path d="" fill="#21AE69" transform="translate(0,0)"/>
<path d="" fill="#20B16D" transform="translate(0,0)"/>
<path d="" fill="#21AF6C" transform="translate(0,0)"/>
<path d="" fill="#21AD6B" transform="translate(0,0)"/>
<path d="" fill="#25B06E" transform="translate(0,0)"/>
<path d="" fill="#20AE6E" transform="translate(0,0)"/>
<path d="" fill="#21AC6B" transform="translate(0,0)"/>
<path d="" fill="#22AD70" transform="translate(0,0)"/>
<path d="" fill="#24B16D" transform="translate(0,0)"/>
<path d="" fill="#22AF6E" transform="translate(0,0)"/>
<path d="" fill="#20AF6D" transform="translate(0,0)"/>
<path d="" fill="#22AD6B" transform="translate(0,0)"/>
<path d="" fill="#25AF6C" transform="translate(0,0)"/>
</svg>
